<svg width="1902" height="1328" viewBox="0 0 1902 1328" fill="none" xmlns="http://www.w3.org/2000/svg">
<path d="M511.128 316.64C561.593 308.703 594.093 345.553 620.58 403.185C647.067 460.817 694.724 562.749 635.228 578.833C575.733 594.916 565.842 567.85 523.638 580.383C481.435 592.917 284.385 680.974 209.928 669.5C135.47 658.026 159.677 587.909 209.928 515.861C260.178 443.813 328.739 531.15 369.759 488.118C410.778 445.086 331.495 445.962 353.046 402.472C374.598 358.981 460.663 324.577 511.128 316.64Z" fill="url(#paint0_linear_2803_20)"/>
<path d="M432.064 601.38C383.52 628.37 311.363 597.822 225.658 541.399C139.954 484.977 110.401 437.943 161.076 398.44C211.751 358.937 177.461 375.955 161.076 304.563C144.691 233.171 242.086 67.5222 336.304 54.1823C430.521 40.8425 559.634 166.698 573.81 266.842C587.987 366.987 459.243 312.233 455.435 375.955C451.627 439.678 506.359 389.861 524.709 447.193C543.059 504.525 480.608 574.39 432.064 601.38Z" fill="url(#paint1_linear_2803_20)"/>
<path d="M125.068 436.21C153.31 393.641 202.435 394.574 262.82 413.982C323.205 433.389 430.554 467.117 402.217 521.848C373.881 576.578 347.243 565.585 327.972 605.168C308.7 644.752 300.256 850.662 241.494 897.807C182.732 944.952 87.6316 878.593 68.4608 792.869C49.2899 707.146 160 715.601 155.986 656.286C151.972 596.971 99.0558 656.018 81.5511 610.746C64.0463 565.475 96.8259 478.779 125.068 436.21Z" fill="url(#paint2_linear_2803_20)"/>
<path d="M1699.96 515.351C1724.32 519.87 1749.01 556.14 1775.05 607.642C1801.09 659.144 1847.57 750.408 1820.3 750.429C1793.03 750.45 1782.12 726.809 1763.02 727.718C1743.91 728.627 1691.1 800.474 1650.19 775.376C1609.28 750.278 1576.71 655.604 1587.19 609.107C1597.68 562.609 1641.69 627.427 1653.63 602.017C1665.58 576.607 1634.96 579.621 1636.76 549.669C1638.55 519.717 1675.61 510.833 1699.96 515.351Z" fill="url(#paint3_linear_2803_20)"/>
<path d="M1065.89 483.887C1039.63 440.07 1061.62 396.132 1105.13 349.984C1148.65 303.837 1225.3 221.466 1262.5 270.604C1299.7 319.742 1278.31 339.053 1305.74 373.488C1333.17 407.923 1515.39 504.191 1532.64 577.525C1549.9 650.86 1449.06 708.127 1363.44 688.526C1277.81 668.924 1333.1 572.639 1277.84 550.726C1222.57 528.813 1253.09 601.995 1204.69 598.305C1156.29 594.614 1092.15 527.704 1065.89 483.887Z" fill="url(#paint4_linear_2803_20)"/>
<path d="M1273.17 781.093C1295.61 826.984 1344.44 832.471 1406.84 821.111C1469.24 809.752 1580.08 790.324 1559.13 732.363C1538.18 674.402 1510.33 681.825 1496.39 640.064C1482.45 598.304 1500.96 393.053 1448.85 338.642C1396.75 284.23 1293.8 337.608 1263.6 420.096C1233.41 502.584 1344.27 508.651 1332.55 566.935C1320.83 625.219 1276.07 559.77 1252.81 602.37C1229.54 644.969 1250.73 735.202 1273.17 781.093Z" fill="url(#paint5_linear_2803_20)"/>
<path d="M1539.72 513.985C1591.54 522.65 1643.05 597.729 1696.96 704.628C1750.87 811.528 1847.1 1000.95 1788.91 1001.87C1730.72 1002.8 1708.19 953.694 1667.4 956.213C1626.61 958.732 1511.58 1110.74 1425.09 1059.56C1338.61 1008.38 1272.16 811.376 1296.04 713.765C1319.92 616.154 1411.73 750.329 1438.05 696.786C1464.36 643.243 1398.93 650.537 1403.73 587.82C1408.53 525.104 1487.89 505.32 1539.72 513.985Z" fill="url(#paint6_linear_2803_20)"/>
<path d="M1618.96 380.074C1643.32 384.592 1668.01 420.862 1694.05 472.365C1720.09 523.867 1766.57 615.131 1739.3 615.152C1712.03 615.172 1701.12 591.531 1682.02 592.44C1662.91 593.349 1610.1 665.197 1569.19 640.098C1528.28 615 1495.71 520.327 1506.19 473.829C1516.68 427.332 1560.69 492.149 1572.63 466.74C1584.58 441.33 1553.96 444.343 1555.76 414.392C1557.55 384.44 1594.61 375.555 1618.96 380.074Z" fill="url(#paint7_linear_2803_20)"/>
<path d="M1048.3 1114.07C1076.1 1169.78 1178.64 1201.62 1317.88 1224.92C1457.12 1248.21 1836.58 1356.34 1817.37 1290.01C1798.16 1223.68 1739.22 1176.05 1727.86 1128.89C1716.5 1081.73 1699.66 1004.91 1611.87 924.94C1524.09 844.97 1290.33 705.283 1188.64 766.932C1086.94 828.581 1112.98 848.158 1118.65 856.295C1124.32 864.432 1153.19 906.028 1084.18 933.68C1015.17 961.332 1020.5 1058.36 1048.3 1114.07Z" fill="url(#paint8_linear_2803_20)"/>
<defs>
<linearGradient id="paint0_linear_2803_20" x1="625.406" y1="410.338" x2="182.482" y2="650.826" gradientUnits="userSpaceOnUse">
<stop stop-color="#F4B0FF"/>
<stop offset="1" stop-color="#DBFBFF" stop-opacity="0"/>
</linearGradient>
<linearGradient id="paint1_linear_2803_20" x1="213.305" y1="534.943" x2="472.884" y2="102.931" gradientUnits="userSpaceOnUse">
<stop stop-color="#CEB0FF"/>
<stop offset="1" stop-color="#DBFBFF" stop-opacity="0"/>
</linearGradient>
<linearGradient id="paint2_linear_2803_20" x1="271.354" y1="415.256" x2="149.426" y2="904.285" gradientUnits="userSpaceOnUse">
<stop stop-color="#B0F6FF"/>
<stop offset="1" stop-color="#DBFBFF" stop-opacity="0.2"/>
</linearGradient>
<linearGradient id="paint3_linear_2803_20" x1="1779.07" y1="614.364" x2="1601.98" y2="710.518" gradientUnits="userSpaceOnUse">
<stop stop-color="#C495FF"/>
<stop offset="1" stop-color="#DECFFF" stop-opacity="0"/>
</linearGradient>
<linearGradient id="paint4_linear_2803_20" x1="1109.96" y1="342.83" x2="1498.85" y2="663.414" gradientUnits="userSpaceOnUse">
<stop offset="0.2875" stop-color="#B0F6FF"/>
<stop offset="0.865625" stop-color="#DBFBFF" stop-opacity="0"/>
</linearGradient>
<linearGradient id="paint5_linear_2803_20" x1="1415.47" y1="820.962" x2="1358.42" y2="320.202" gradientUnits="userSpaceOnUse">
<stop stop-color="#FFCCEE"/>
<stop offset="1" stop-color="#FFCCEE" stop-opacity="0"/>
</linearGradient>
<linearGradient id="paint6_linear_2803_20" x1="1705.34" y1="718.561" x2="1324.32" y2="925.437" gradientUnits="userSpaceOnUse">
<stop stop-color="#DDC2FF"/>
<stop offset="1" stop-color="white" stop-opacity="0"/>
</linearGradient>
<linearGradient id="paint7_linear_2803_20" x1="1698.07" y1="479.087" x2="1520.98" y2="575.24" gradientUnits="userSpaceOnUse">
<stop stop-color="#C7F1FF"/>
<stop offset="1" stop-color="#CFFCFF" stop-opacity="0"/>
</linearGradient>
<linearGradient id="paint8_linear_2803_20" x1="1336.5" y1="1229.49" x2="1437.03" y2="724.06" gradientUnits="userSpaceOnUse">
<stop stop-color="#9DEDFF"/>
<stop offset="1" stop-color="#DF9BFF" stop-opacity="0"/>
</linearGradient>
</defs>
</svg>
