<svg width="1282" height="1198" viewBox="0 0 1282 1198" fill="none" xmlns="http://www.w3.org/2000/svg">
<path d="M452.963 879.351C477.316 883.87 502.004 920.14 528.046 971.642C554.089 1023.14 600.567 1114.41 573.299 1114.43C546.031 1114.45 535.116 1090.81 516.014 1091.72C496.913 1092.63 444.095 1164.47 403.188 1139.38C362.281 1114.28 329.705 1019.6 340.191 973.107C350.677 926.609 394.685 991.427 406.631 966.017C418.577 940.607 387.961 943.621 389.757 913.669C391.553 883.717 428.609 874.833 452.963 879.351Z" fill="url(#paint0_linear_2803_33)"/>
<path d="M458.466 586.536C464.194 637.299 425.962 668.161 367.229 692.109C308.497 716.056 204.583 759.222 191.11 699.081C177.637 638.941 205.109 630.24 194.428 587.53C183.747 544.82 57.8592 381.655 72.5696 307.769C87.28 233.882 202.785 223.587 272.573 276.932C342.361 330.277 252.117 394.964 293.318 437.821C334.52 480.679 337.102 401.433 379.612 424.861C422.121 448.289 452.738 535.772 458.466 586.536Z" fill="url(#paint1_linear_2803_33)"/>
<path d="M551.763 478.325C574.207 524.216 623.034 529.703 685.435 518.343C747.837 506.983 858.669 487.556 837.719 429.595C816.769 371.634 788.924 379.056 774.984 337.296C761.044 295.536 779.549 90.2846 727.443 35.8733C675.337 -18.538 572.39 34.8402 542.194 117.328C511.998 199.816 622.865 205.883 611.143 264.167C599.421 322.45 554.664 257.002 531.4 299.601C508.136 342.201 529.319 432.434 551.763 478.325Z" fill="url(#paint2_linear_2803_33)"/>
<path d="M1178.79 365.34C1196.77 414.712 1156.79 496.515 1090.29 596.074C1023.8 695.633 906.324 872.666 876.865 822.475C847.406 772.285 879.05 728.497 856.771 694.235C834.492 659.972 645.543 634.706 647.505 534.232C649.466 433.757 788.202 278.908 884.918 251.626C981.633 224.345 910.066 370.328 969.625 366.865C1029.18 363.402 990.616 310.046 1047.57 283.341C1104.51 256.635 1160.81 315.968 1178.79 365.34Z" fill="url(#paint3_linear_2803_33)"/>
<path d="M1254.94 654.044C1267.7 675.278 1256.89 717.801 1235.57 771.432C1214.26 825.063 1176.7 920.347 1158.62 899.938C1140.53 879.529 1151.01 855.689 1137.67 841.985C1124.33 828.281 1035.52 836.331 1027.22 789.062C1018.91 741.794 1068.23 654.663 1110 631.707C1151.77 608.75 1132.39 684.66 1159.33 676.77C1186.28 668.88 1163.74 647.947 1187.36 629.445C1210.98 610.944 1242.19 632.81 1254.94 654.044Z" fill="url(#paint4_linear_2803_33)"/>
<path d="M264.297 869.124C292.1 924.837 394.642 956.679 533.88 979.974C673.119 1003.27 1052.58 1111.39 1033.37 1045.06C1014.15 978.731 955.214 931.102 943.855 883.942C932.496 836.782 915.654 759.965 827.87 679.995C740.087 600.025 506.331 460.337 404.635 521.986C302.939 583.635 328.975 603.213 334.647 611.35C340.318 619.487 369.189 661.083 300.178 688.735C231.167 716.387 236.494 813.41 264.297 869.124Z" fill="url(#paint5_linear_2803_33)"/>
<defs>
<linearGradient id="paint0_linear_2803_33" x1="532.073" y1="978.364" x2="354.98" y2="1074.52" gradientUnits="userSpaceOnUse">
<stop stop-color="#C495FF"/>
<stop offset="1" stop-color="#DECFFF" stop-opacity="0"/>
</linearGradient>
<linearGradient id="paint1_linear_2803_33" x1="359.873" y1="696.618" x2="138.934" y2="243.626" gradientUnits="userSpaceOnUse">
<stop offset="0.2875" stop-color="#B0F6FF"/>
<stop offset="0.865625" stop-color="#DBFBFF" stop-opacity="0"/>
</linearGradient>
<linearGradient id="paint2_linear_2803_33" x1="694.063" y1="518.194" x2="637.008" y2="17.4334" gradientUnits="userSpaceOnUse">
<stop stop-color="#FFCCEE"/>
<stop offset="1" stop-color="#FFCCEE" stop-opacity="0"/>
</linearGradient>
<linearGradient id="paint3_linear_2803_33" x1="1082.29" y1="610.224" x2="714.614" y2="380.473" gradientUnits="userSpaceOnUse">
<stop stop-color="#DDC2FF"/>
<stop offset="1" stop-color="white" stop-opacity="0"/>
</linearGradient>
<linearGradient id="paint4_linear_2803_33" x1="1233.21" y1="778.902" x2="1043.85" y2="709.98" gradientUnits="userSpaceOnUse">
<stop stop-color="#C7F1FF"/>
<stop offset="1" stop-color="#CFFCFF" stop-opacity="0"/>
</linearGradient>
<linearGradient id="paint5_linear_2803_33" x1="552.498" y1="984.54" x2="653.033" y2="479.114" gradientUnits="userSpaceOnUse">
<stop stop-color="#9DEDFF"/>
<stop offset="1" stop-color="#DF9BFF" stop-opacity="0"/>
</linearGradient>
</defs>
</svg>
